<?xml version="1.0" standalone="no"?>
<!DOCTYPE svg PUBLIC "-//W3C//DTD SVG 20010904//EN"
 "http://www.w3.org/TR/2001/REC-SVG-20010904/DTD/svg10.dtd">
<svg version="1.0" xmlns="http://www.w3.org/2000/svg"
 width="200.000000pt" height="200.000000pt" viewBox="0 0 200.000000 200.000000"
 preserveAspectRatio="xMidYMid meet">
<metadata>
Created by potrace 1.16, written by Peter Selinger 2001-2019
</metadata>
<g transform="translate(0.000000,200.000000) scale(0.100000,-0.100000)"
fill="#000000" stroke="none">
<path d="M0 1000 l0 -1000 1000 0 1000 0 0 1000 0 1000 -1000 0 -1000 0 0
-1000z m775 370 c73 -33 137 -96 173 -170 26 -53 27 -62 30 -257 4 -193 3
-202 -17 -222 -25 -25 -73 -27 -92 -5 -10 13 -15 67 -19 208 -5 187 -6 192
-33 239 -15 26 -47 60 -69 75 -36 23 -51 27 -118 27 -67 0 -82 -4 -118 -27
-77 -52 -117 -157 -92 -248 16 -58 89 -133 145 -149 22 -6 82 -11 133 -11 79
0 95 -3 112 -20 26 -26 25 -65 -1 -91 -20 -20 -29 -21 -147 -17 -107 3 -134 8
-174 27 -75 36 -134 95 -170 169 -30 61 -33 74 -32 157 0 77 4 98 28 146 86
178 285 250 461 169z m702 -153 c106 -73 119 -213 29 -303 -45 -45 -93 -64
-166 -64 -49 0 -70 13 -70 42 0 24 31 38 85 38 86 0 135 47 135 128 0 76 -75
132 -149 112 -20 -5 -48 -21 -62 -36 -23 -25 -24 -31 -29 -221 -4 -172 -7
-197 -23 -207 -12 -8 -22 -8 -35 0 -15 10 -17 31 -17 205 0 170 2 198 18 228
23 42 62 79 102 97 48 23 136 13 182 -19z"/>
</g>
</svg>
